# xmcd
#
# Track frame offsets: 
#        150
#        3668
#        49592
#        73450
#        92557
#        96804
#        100533
#        119380
#        146551
#        168006
#        173563
#        189965
#        224854
#        243641
#        271290
#        293999
#
# Disc length: 4286 seconds
#
# Revision: 0
# Processed by: cddbd v1.5.2PL0 Copyright (c) Steve Scherf et al.
# Submitted via: ExactAudioCopy v0.95b4
#
DISCID=e710bc10
DTITLE=Alaska - 2000-11-18 - Dew Drop Inn - York PA
DYEAR=2000
DGENRE=Progressive Rock
TTITLE0=Band Name
TTITLE1=Kashmir
TTITLE2=Piano Man
TTITLE3=Dancing Days
TTITLE4=Mortgage
TTITLE5=Weenie
TTITLE6=The Ocean
TTITLE7=Smoke On The Water
TTITLE8=All Along The Watchtower
TTITLE9=Behind Blue Eyes [cut]
TTITLE10=Your Move
TTITLE11=Since I've Been Loving You
TTITLE12=Steppin' Out
TTITLE13=More Joe, No Cow
TTITLE14=Bennie And The Jets
TTITLE15=Golden Slumbers - Carry That Weight - The End
EXTD=
EXTT0=
EXTT1=
EXTT2=
EXTT3=
EXTT4=
EXTT5=
EXTT6=
EXTT7=
EXTT8=
EXTT9=
EXTT10=
EXTT11=
EXTT12=
EXTT13=
EXTT14=
EXTT15=
PLAYORDER=
